<?xml version="1.0" encoding="UTF-8"?>
<svg id="Layer_1" xmlns="http://www.w3.org/2000/svg" version="1.1" viewBox="0 0 560 257.34">
  <!-- Generator: Adobe Illustrator 29.5.0, SVG Export Plug-In . SVG Version: 2.1.0 Build 137)  -->
  <defs>
    <style>
      .st0 {
        fill: #c1272d;
      }
    </style>
  </defs>
  <path class="st0" d="M269.63,212.71c-.82-.61-1.91-.96-3.27-1.05.82.61,1.91.96,3.27,1.05Z"/>
  <path class="st0" d="M266.43,194.17c0,1.02.57,1.7,1.71,2.05-.37-.77-.94-1.45-1.71-2.05Z"/>
  <path class="st0" d="M263.89,156.7l-1.46-.06c-.77.37-1.41.92-1.92,1.65l1.53-.21c.76-.24,1.37-.7,1.84-1.39Z"/>
  <path class="st0" d="M244.12,169.46c.1.98.78,1.51,2.06,1.6-.28-.76-.97-1.3-2.06-1.6Z"/>
  <path class="st0" d="M249.19,178.99l-3.9-.35c.66,1.18,1.82,1.95,3.49,2.32l.41-1.97Z"/>
  <path class="st0" d="M247.63,195.44l.42-2.24-2.12-.08c.01.8.18,1.64.5,2.54l1.2-.22Z"/>
  <path class="st0" d="M261.18,189.53l2.11.35c-.06-1.81-.23-3.21-.5-4.19l-.49-2.74c-.51-.55-1.2-1.06-2.06-1.54l1.31,5.68c-.94.27-1.86.66-2.76,1.15.6.51,1.4.94,2.4,1.29Z"/>
  <path class="st0" d="M245.11,174.66c-.08-.36-.37-.7-.89-1.03.07.44.37.79.89,1.03Z"/>
  <path class="st0" d="M273.74,207.5l1.86-.19c.45-.34.87-.81,1.25-1.41l-2.12-.08c-.54.38-.88.94-.99,1.68Z"/>
  <path class="st0" d="M273.45,168.39c-.94.27-1.77.73-2.5,1.36l4.24.16c-.24-.67-.82-1.18-1.73-1.52Z"/>
  <path class="st0" d="M312.04,111.97c-.5.59-.82,1.35-.98,2.28.03.42.19.74.49.96l1.05-2.27c-.08-.42-.27-.74-.57-.96Z"/>
  <path class="st0" d="M323.27,66.6l-.62,5.79,4.2,18.56.75,7.65-2.59.4c.09,1.3.29,2.68.63,4.15l.85.05c1.32-.55,2.16-1.67,2.51-3.36l-.02-5.28-.31-.02-.25-5.53.48-3.16-.2-2.11-2.72-14.36c-.23-1.57-1.13-2.49-2.72-2.79Z"/>
  <path class="st0" d="M204.88,65.96l-3.63-.4c.24,1.73,1.53,2.69,3.87,2.87l-.24-2.46Z"/>
  <path class="st0" d="M309.92,129.65l.57.89c.58.81,1.31,1.62,2.2,2.45l.45-4.01c-.58-.81-1.4-1.45-2.46-1.92l-.76,2.6Z"/>
  <polygon class="st0" points="282.99 203.15 279.68 203.03 279.61 204.75 282.61 204.4 282.99 203.15"/>
  <path class="st0" d="M305.19,130.87l.54,1.51c.56-.85,1-1.81,1.32-2.88l-1.86,1.37Z"/>
  <path class="st0" d="M290.71,198.81l-1.19-.05c-.63.33-1.16.8-1.58,1.4l1.19.05c.72-.28,1.24-.75,1.58-1.4Z"/>
  <path class="st0" d="M285.47,209.15c.12.36.42.55.91.56l-.91-.56Z"/>
  <path class="st0" d="M303.19,140.62l-.1,1.78,1.2-.56c-.07-.68-.1-1.45-.11-2.34l.88-.5,3.21-.45,5.62-2.03,3.51-.35c.69-.38,1.32-.94,1.88-1.69l1.32-2.8c-.16-.89-.61-1.59-1.36-2.09l-.73,3.46-6.21,1.37c-.94.1-1.93.34-2.99.69-.84.16-1.81.5-2.93,1.01l-2.11,1.67-1.08,2.82Z"/>
  <polygon class="st0" points="211.73 139.72 212.7 138.5 211.78 138.26 211.73 139.72"/>
  <path class="st0" d="M227.75,122.84l-1.52-.06-1.33,3.66,1.2-.22c.92-.89,1.47-2.02,1.65-3.38Z"/>
  <path class="st0" d="M216.23,148.5l.35-2.24.03-.73h-.26s-2.03,4.62-2.03,4.62c.08.31.29.56.63.75l1.29-2.4Z"/>
  <path class="st0" d="M221.57,126.84c-.5-.9-1.26-1.68-2.3-2.34l-1.53.21.85,2.02c.68.78,1.55,1.54,2.63,2.29l1.2-.22-.85-1.96Z"/>
  <polygon class="st0" points="220.61 136.15 221.59 134.93 220.67 134.63 220.61 136.15"/>
  <polygon class="st0" points="208.39 162.91 208.7 163.46 208.72 162.93 208.39 162.91"/>
  <path class="st0" d="M322.64,61.05c.12.73.47,1.32,1.07,1.77-.07-.73-.42-1.32-1.07-1.77Z"/>
  <path class="st0" d="M243.04,188.83c.91.35,1.8.8,2.66,1.36.6.42,1.3.69,2.09.81-.11-.71-.48-1.39-1.11-2.03l-2.55-4.47-3.63-.4c.1.84.47,1.67,1.1,2.49l1.44,2.24Z"/>
  <polygon class="st0" points="207.01 167.57 207.65 166.6 207.4 166.13 207.01 167.57"/>
  <path class="st0" d="M204.59,97.89l-1.26-.05c-.8.19-1.5.56-2.1,1.11l1.2-.15c.8-.15,1.52-.45,2.16-.91Z"/>
  <path class="st0" d="M198.43,187.38c.27-.03.47-.18.61-.44l1.97-4.63c.84-1.16,1.6-2.52,2.28-4.09.8-1.29,1.46-2.82,1.96-4.56l.75-3.95-1.18-.24-5.95,13.49-.43,4.42Z"/>
  <path class="st0" d="M205.88,55.66l-3.57-1.86-3.32.07-1.17-.51c-1.4-.41-2.89-.71-4.47-.9l2.65,1.82,4.46,1.17,3.24,1.85c1.44.41,2.95.71,4.54.9-.54-.99-1.32-1.84-2.35-2.54Z"/>
  <path class="st0" d="M252.97,166.88l-1.88,2.38.53,1.74,1.22-.68c.69-.64,1.51-1.27,2.46-1.89-.41-.77-1.19-1.28-2.33-1.55Z"/>
  <path class="st0" d="M251.52,173.45l-1.53.21c.28.67.86,1.27,1.72,1.79l1.19.05c-.19-.76-.65-1.44-1.38-2.04Z"/>
  <path class="st0" d="M243.34,181.02c-.31-1.07-.87-2.09-1.67-3.05l-2.37-2.08.78,3.74c.77.78,1.85,1.24,3.26,1.38Z"/>
  <polygon class="st0" points="238.62 171.23 239.84 170.55 239.26 170 238.62 171.23"/>
  <path class="st0" d="M255.46,157.1l.18,2.26,2.46-.17c-.04-1.28-.92-1.98-2.64-2.09Z"/>
  <path class="st0" d="M255.18,179.95l3.33-.34-.88-1.29-3.3-.33c.06.67.35,1.32.85,1.96Z"/>
  <path class="st0" d="M240.81,152.16l2.74,1.03c-.19-.76-.67-1.51-1.44-2.24l-2.67-1.1c.28.81.73,1.58,1.37,2.31Z"/>
  <path class="st0" d="M255.19,210.7c-.42-.46-1.01-.81-1.75-1.06.42.46,1.01.81,1.75,1.06Z"/>
  <path class="st0" d="M244.85,79.75l-1.5-.52c-1.35-.54-2.94-1.02-4.78-1.44.04,1.37.38,2.78,1.03,4.21l1.15,1.04,3.07-.61,1.03-2.68Z"/>
  <path class="st0" d="M329.05,61.71l-1.78-.1c.09,1.25.33,2.5.73,3.77l.85.05.2-3.72Z"/>
  <polygon class="st0" points="307.95 156.03 307.64 156.01 307.74 159.82 307.95 156.03"/>
  <path class="st0" d="M312.79,141.14c-.03-.36-.2-.66-.5-.88l-4.48.92c-.63.23-1.33.58-2.08,1.05l1.78.1,4.29,1.09.98-2.28Z"/>
  <path class="st0" d="M311.54,218.83c.63.76,1.46,1.19,2.49,1.3-.75-.56-1.58-.99-2.49-1.3Z"/>
  <path class="st0" d="M313.38,157.49l.09-1.71-.6-.34c-.04.67.13,1.36.51,2.05Z"/>
  <polygon class="st0" points="313.62 147.32 311.61 147.21 311.47 149.85 313.19 149.63 313.62 147.32"/>
  <path class="st0" d="M303.51,210.86c.04,1.19.67,2.01,1.89,2.43l3.19-.14,1.15.37c-.85-.56-1.78-1-2.8-1.32l-3.42-1.35Z"/>
  <path class="st0" d="M307.65,149.95l-.44,2.31c.14.27.44.46.9.59,0-.93-.16-1.9-.46-2.9Z"/>
  <path class="st0" d="M320.07,76.91l-.47-12.84c-.31-.95-.75-1.93-1.32-2.95l-.51,3.7,2.17,24.58-.14,2.63c.37-.14.69-.4.98-.8.12-1.34.38-2.7.76-4.08.47-1.06.82-2.31,1.06-3.75l-1.88-2.66-.65-3.84Z"/>
  <path class="st0" d="M327.48,192.66l-2.01-.11c.04,1.25.67,1.95,1.9,2.12l.11-2.01Z"/>
  <path class="st0" d="M322.26,192.92l.15-2.87c-.13-1.41-.77-2.61-1.9-3.6-.93.93-1.77,2.05-2.51,3.36l2.13,3.61,2.12-.51Z"/>
  <path class="st0" d="M314.52,195.45l1.78.1c-.43-.64-1-1.17-1.7-1.57l-.08,1.47Z"/>
  <path class="st0" d="M312.67,176.4c-.36.86-.62,1.8-.77,2.83.16.89.61,1.69,1.35,2.4l.71-3.15c-.16-.79-.59-1.48-1.29-2.09Z"/>
  <path class="st0" d="M352.52,209.39c.29.38.67.61,1.13.68l-1.13-.68Z"/>
  <path class="st0" d="M354.75,226.99c.38.59.93,1.01,1.64,1.25-.33-.53-.88-.95-1.64-1.25Z"/>
  <path class="st0" d="M357.79,219.62c.51-.75,1.02-1.6,1.54-2.56-.14-.27-.42-.46-.82-.59-.55.59-.98,1.34-1.29,2.26.03.42.22.71.57.88Z"/>
  <path class="st0" d="M353.56,221.72l.42-2-.28-.64-.26-.87-1.67-.71c.23,1.51.83,2.92,1.79,4.21Z"/>
  <polygon class="st0" points="312.21 167.68 311.99 171.7 313.2 170.91 314.29 168.02 312.21 167.68"/>
  <polygon class="st0" points="346.03 225.97 346.44 224.21 344.11 224.08 343.48 225.84 346.03 225.97"/>
  <path class="st0" d="M552.28,19.4l3.68.56c.29-.04.61-.12.91-.18-.59-1.28-1.26-2.52-2-3.71l.62,1.35c-.08.33-.24.64-.48.93-.9.19-1.81.54-2.73,1.05Z"/>
  <path class="st0" d="M344.61,220.61c.55-.54.97-1.19,1.27-1.95l-1.16-.06-.11,2.01Z"/>
  <path class="st0" d="M345.08,211.94l-1.18.25c.13.47.5.88,1.1,1.22l.92-1.11-.84-.36Z"/>
  <polygon class="st0" points="337.1 106.65 337.92 107.31 339.66 106.79 341.24 104.85 338.41 104.08 337.1 106.65"/>
  <path class="st0" d="M340.37,234.37l.85.05.05-.85-.31-.02c-.32.19-.52.46-.59.82Z"/>
  <polygon class="st0" points="336.69 140.1 337.87 139.93 338.27 138.17 336.8 138.09 336.69 140.1"/>
  <path class="st0" d="M333.12,217.66c.13-1.44.4-3.16.82-5.16l.76-2.6-.15-2.88-1.2-5.04c-.02-1.55-.4-3.13-1.14-4.72-.51,1.68-.82,3.61-.93,5.77l-.04,12.19c-.08,1.55.55,2.36,1.89,2.43Z"/>
  <path class="st0" d="M342.5,114.55c-.22-.74-.68-1.25-1.39-1.55.22.69.68,1.2,1.39,1.55Z"/>
  <path class="st0" d="M336.89,99.1l.18,2.34,2.05-.51c-.53-.7-1.28-1.31-2.23-1.83Z"/>
  <path class="st0" d="M322.13,103.51c-.08-1.35-.28-2.91-.6-4.69.03-1.6-.69-2.6-2.17-2.99l-1.19,10.42.61,10.21c.18,1.51.29,3.25.34,5.22l.04,3.5,1.15.37,3.49.19.85,1.52-.04,10.79c-.07,1.34.24,2.81.93,4.4l1.83,3.59,1.25,4.11.94,9.99c.08,1.35.28,2.92.6,4.69.7-.58,1.32-1.33,1.83-2.23l.61-5.48-.63-9.98-.93-4.4-.62,1.44c-.7-.4-1.37-.93-2.01-1.58-.35-1.26-.65-2.83-.91-4.71l-.93-4.4c.02-1.4-.18-2.96-.6-4.69l-.86-9.99c-.08-1.35-.31-2.92-.68-4.7l.08-1.47c-.8.42-1.61.97-2.42,1.66l.04-10.79ZM322.38,114.63c.49,1.37.9,3.03,1.21,4.96.08,1.4.1,2.96.06,4.66l-1.16-.06c-.97-1.3-1.48-2.88-1.53-4.74.29-1.49.76-3.09,1.43-4.82Z"/>
  <path class="st0" d="M333.15,103.56c.13.53.49.93,1.1,1.22-.18-.48-.55-.88-1.1-1.22Z"/>
  <path class="st0" d="M330.03,139.74c.07-1.24-.15-2.49-.65-3.76-.07,1.24.15,2.49.65,3.76Z"/>
  <path class="st0" d="M320.36,141.86c-.21-.94-.65-1.85-1.33-2.71-.76.63-1.4,1.48-1.92,2.54l.51,7.87,2.73,14.13c-.01,1.19.51,2.1,1.56,2.72l.36-.83-.92-10.23.53-4.09,1.04-3.44-1.56-2.73-.99-3.24Z"/>
  <path class="st0" d="M330.69,111.82l1.05,17.84c0,1.04.15,2.11.45,3.21.93,0,1.53-.43,1.78-1.3l-.11-3.81-1.85-13.23.44-3.78,1.91-2.23-3.16-.4-.51,3.7Z"/>
  <path class="st0" d="M325.56,169.25l-1.47-.08-1.72,4.57-2.23,3.92c-.53,1.27-1.01,2.79-1.41,4.58,1.1.63,2.35.98,3.75,1.06l2.86.15.14-2.56c-1.04-.94-1.83-2.14-2.37-3.62l1.14-5.22,1.32-2.8Z"/>
  <path class="st0" d="M321.52,232.49l-.64,1.75.5.88.73-1.98c-.04-.26-.23-.48-.59-.65Z"/>
  <path class="st0" d="M319.35,170.63l-.69,2.6,1.7.09c-.16-.89-.5-1.79-1.02-2.7Z"/>
  <path class="st0" d="M326.24,221.41l-.04-4.97c-.51-1.12-1.44-2.05-2.8-2.79l-.89-9.37-.94-4.09c-.3-1.21-.83-2.4-1.59-3.58l-.48,4.63.64,9.67.93,4.4c.57,1.02,1.26,2.01,2.09,2.99l-.27,4.96.17,2.65-2.04.43-.42,2.07.61.27.87-.19c1.07-.67,2.18-1.49,3.32-2.46l.87-4.61Z"/>
  <path class="st0" d="M331.82,177.12l.23-4.34-.43-3.52c-.37-.9-.89-1.7-1.58-2.42l-.82,3.76-.23,4.34.41,3.83c.42.85,1.05,1.56,1.91,2.12l.51-3.78Z"/>
  <path class="st0" d="M336.35,77.48l-.67.82c.12.68.37,1.29.75,1.83l.42-2c-.04-.26-.21-.48-.51-.65Z"/>
  <path class="st0" d="M332.43,230.44l1.19-6.3c.46-.8,1.09-1.55,1.91-2.23l1.21-.79-1.47-.08-2.91-.78-.42,3.47-.1,6.13c.04.26.23.45.59.58Z"/>
  <path class="st0" d="M326.69,201.62l-.78,4.31c.09,1.14.42,2.33.97,3.55l-.08-4.35.45-2.62c-.08-.37-.27-.66-.57-.89Z"/>
  <path class="st0" d="M331.62,190.78l.17,2.65c.56-.75.99-1.6,1.3-2.57.48-1.32,1.62-2.6,3.39-3.86l.13-2.32-4.01-.53c-.42,1.95-.74,4.15-.98,6.63Z"/>
  <path class="st0" d="M117.29,15.86c-1.31.32-2.63.81-3.97,1.46l.63,2.54,2.12-.9,4.79-1.24c-.65-1.27-1.84-1.9-3.57-1.87Z"/>
  <path class="st0" d="M99.72,106.61l1.14,4.8,1.81-.97c2.17-.33,4.09-1.24,5.75-2.73-1.85-.5-3.67-1.46-5.47-2.9l-.57-1.85c.98.51,2.14.77,3.47.78l.39-3.34-3.45-.48c-1.14-1.5-2.74-2.62-4.81-3.36.96,1.78,1.65,3.85,2.07,6.21l-2.11.99,1.76,2.84Z"/>
  <path class="st0" d="M106.93,238.39c-.2-1.45-1.04-2.27-2.53-2.47.55.95,1.4,1.77,2.53,2.47Z"/>
  <polygon class="st0" points="99.93 243.83 101.02 243.73 100.06 242.02 99.93 243.83"/>
  <polygon class="st0" points="98.01 80.45 100.26 79.85 98.67 78.89 98.01 80.45"/>
  <path class="st0" d="M105.58,76.76l2.17-1.4,1.72-1.96c-.91-.45-1.97-.75-3.19-.91l-.71,4.27Z"/>
  <path class="st0" d="M103.41,20.54c-1.39.86-2.95,1.64-4.69,2.33l-.82,3.08,1.19.99c1.62-.48,3.2-1.13,4.72-1.93l.48-3.45c-.18-.52-.48-.86-.89-1.02Z"/>
  <polygon class="st0" points="100.21 74.95 100.87 74.49 97.5 74.8 100.21 74.95"/>
  <path class="st0" d="M102.39,42.04l3.31-1h-4.5c.25.53.64.85,1.19,1Z"/>
  <path class="st0" d="M105.54,97.07l.12-3.01-1.49.14c.16,1.05.62,2.01,1.36,2.88Z"/>
  <path class="st0" d="M114.79,12.69c.32.64.85.96,1.59.95-.38-.5-.91-.82-1.59-.95Z"/>
  <polygon class="st0" points="115.86 159.24 114.27 159.39 113.79 161.73 115.24 161.2 115.86 159.24"/>
  <path class="st0" d="M357.9,206.19l-.21,3.79.7-1.44c.66-.64,1.16-1.39,1.52-2.25l-2.01-.11Z"/>
  <path class="st0" d="M117.08,103.91l.26-1.52-1.09.1c.05.53.33,1,.83,1.42Z"/>
  <path class="st0" d="M56.64,256.12l.11,1.22h.94c.18-.42.33-.87.44-1.36l-1.49.14Z"/>
  <path class="st0" d="M3.43,176.78l.05,3.8c.33,1.44,1.42,2.34,3.25,2.7l-.14-1.49,1.23-6.21,2.28-.21,1.28,5.18.29,7.48-.19,2.32c-1.01-.84-1.87-1.89-2.59-3.16l-.51-2.25c-1.23.38-2.31.98-3.24,1.8-.22,1.96-1.05,3.8-2.49,5.53-.85-.59-1.56-1.39-2.12-2.41-.18.05-.36.11-.53.17v14.76c.28.28.57.56.88.84,1.35-.52,1.99-1.58,1.91-3.18l-.05-4.9c.15-1.22.69-2.26,1.61-3.15.76,1,1.5,2.16,2.22,3.5l1.44,3.67c.4.76.72,1.73.97,2.91l-1.03.79-5.31,3.19c.12.59.4,1.06.83,1.42l4.27.71c1.53-.07,2.6.7,3.21,2.31l1.11,4.5,1.83,3.53c1.25.55,2.55.93,3.91,1.14.74-.67,1.69-1.26,2.84-1.76,1.23.35,2.43,1.01,3.58,1.97-.65.93-1.46,1.87-2.44,2.82l-3.06,2.58-1.68,2.36,4.4-1.1c.67-.66,1.5-1.14,2.47-1.43l3.61-2.13,2.33-2.92,1.15-3.81.37-4.64c.15-1.28.66-2.56,1.55-3.84.86-.74,1.9-1.47,3.1-2.18l4.07-1.47c1.24-.31,2.56-.8,3.97-1.47,1.07-.63,2.31-1.01,3.7-1.14,1.53-.07,3.17.04,4.93.35l3.44,1.48,2.56,2.77c.63,1.08,1.45,2,2.46,2.77,1.42.2,2.86.61,4.31,1.2l8.07,1.86,9.98-1.32,4.4-1.11c1.16-.44,2.37-1.05,3.63-1.83l3.6-2.23,3.92-6.36c.57-1.05,1.1-2.23,1.57-3.55l1.48-3.54,2.44-2.82,1.14-3.91c-1.29-.22-2.59-.6-3.91-1.14l-6.35-69.04c.36-1.1.89-2.28,1.57-3.55,1.04.44,2.09.98,3.15,1.61.81.79,1.75,1.61,2.82,2.44.52-.11.99-.42,1.41-.93l-1.26-1.78-6.76-3.88c-.57-1.08-.91-2.28-1.03-3.61l-.05-3.8-2.61-8.76-.67-10.54,1.06-9.1,2.28-.21c-.18-.52-.5-1.12-.97-1.81l-2.46-2.78c-.52-1.29-.92-2.75-1.2-4.39l-3.9-42.46-.09-5.29,3.53-1.82c.76-.4,1.35-.96,1.75-1.66l-1.89.17-2.54.63-1.2-13.09-.03-2.9h-52.31C15.24,0,0,15.24,0,34.05v143.04l3.43-.32ZM28.34,218.1c-.48-.89-.84-1.86-1.07-2.9l1.88-.17c-.11,1.01-.38,2.04-.82,3.08ZM24.4,187.25c1.64.38,2.83,1.41,3.58,3.07.58.48,1.24.79,1.98.92.55-.58.98-1.36,1.29-2.32-1-.71-1.95-1.65-2.86-2.84l-1.07-2.9,2.61-.94c-.83-1.06-1.83-2.1-2.99-3.13.19-1.55,1.11-2.77,2.77-3.65l.92-1.99,2.69.95,2.95,3.83c1.33.68,2.78,1.18,4.34,1.5l.46-2.64-1.56-.66-1.92-.22v-4.5s12.29-1.13,12.29-1.13c.34.04.63.28.87.72l2.86,26.75c-1.39.8-3.1,1.45-5.12,1.97l-8.85,1.61-1.1-3.3,3.93-2.96-1.28-5.18c-.36-1.77-.9-3.58-1.6-5.45-1.06-.7-2.25-1.23-3.55-1.58l.14,1.49,1.93,4.72c.82,1.66,1.36,3.61,1.64,5.85l-4.69,2.33c-.53,1.45-1.4,2.9-2.6,4.34l-7.87.32.1-3.31-1.25-5.99-.18-5.19,1.15-.51ZM20.62,196.2l-3.24.7-1.53-3.56c1.61.05,3.26.27,4.96.64l-.2,2.22ZM19.11,175.34l.55,5.95c-.57,2.45-.83,5.11-.77,7.97l-1.75,1.66c-.36-1.7-.64-3.68-.84-5.93l-.86-9.32,3.67-.34Z"/>
  <polygon class="st0" points="29.29 228.52 29.94 231.16 32.52 230.92 32.48 230.53 32.67 228.21 29.29 228.52"/>
  <polygon class="st0" points="92.34 23.06 93.27 24.47 94.29 23.58 94.24 18.68 92.35 18.85 92.34 23.06"/>
  <path class="st0" d="M101.19,8.34c.56,1.02,1.41,1.94,2.56,2.77.63,1.01,1.44,1.94,2.46,2.77l2.03-2.89,2.07-5.79-1.13-.3-.36.43-4.79,1.24c-1.3-.35-2.12-1.27-2.46-2.78-.76-1.06-1.75-2-2.96-2.83l-1.39-.97h-5l8.97,8.34Z"/>
  <polygon class="st0" points="33.43 196.23 32.49 193.61 30.21 193.82 29.54 198.49 32.04 197.46 33.43 196.23"/>
  <polygon class="st0" points="49.54 187.54 47.99 186.99 47.96 189.99 49.45 189.85 49.54 187.54"/>
  <path class="st0" d="M111.76,37.38l1.16.69c-.24-.38-.62-.61-1.16-.69Z"/>
  <path class="st0" d="M104.68,209.59l-1.88.17-5.68,12.23v4.5s3.09.82,3.09.82l.41,4.46-.92,1.99,1.05-.5,4.95-3.86-2.57-7.27c.22-1.95.8-4.01,1.73-6.16l-.19-6.39Z"/>
  <path class="st0" d="M48.8,256.84l2.84-1.76,1.39-1.23c-.3-1.1-.77-2.19-1.4-3.27-1.64,1.02-3.55,1.96-5.74,2.83-.64,1.18-1.11,2.49-1.44,3.93h.58l.41-.19,3.37-.31Z"/>
  <path class="st0" d="M57.73,235.31l-1.49.14c-.66.86-1.06,1.9-1.22,3.11l1.96.62c.43-1.17.67-2.46.74-3.87Z"/>
  <path class="st0" d="M89.05,244.13l.71,4.44,1.19-.11c-.41-1.5-1.04-2.94-1.9-4.33Z"/>
  <polygon class="st0" points="75.75 250.66 73.03 250.51 72.83 252.73 74.79 253.35 75.55 252.88 75.75 250.66"/>
  <path class="st0" d="M67.78,233.68c-1.01-.84-2.19-1.37-3.55-1.58-.99.82-1.9,1.77-2.74,2.85,1.04.44,2.19.6,3.45.48,1.04-.23,1.99-.82,2.84-1.76Z"/>
  <path class="st0" d="M43.56,211.8l.78,4.13,2.18-.2c-.25-2.04-1.07-4-2.44-5.88l-.52,1.95Z"/>
  <path class="st0" d="M38.88,214.13l-2.35-.58-.95,1.69c.85.59,1.89.99,3.11,1.22l.19-2.32Z"/>
  <path class="st0" d="M46.12,223.27c.2,1.45,1.02,2.37,2.46,2.78-.26-1.38-1.08-2.3-2.46-2.78Z"/>
  <path class="st0" d="M50.62,235.26c-.44-1.16-1.29-2.08-2.56-2.77l.27,2.98,2.28-.21Z"/>
  <polygon class="st0" points="101.67 136.54 102.59 134.55 101.46 134.26 101.13 135.09 101.67 136.54"/>
  <path class="st0" d="M112.27,100.55c-.09-.99-.55-1.95-1.36-2.88.22.98.68,1.94,1.36,2.88Z"/>
  <path class="st0" d="M115.49,73.55c-.71-.47-1.51-.76-2.38-.88.71.47,1.5.76,2.38.88Z"/>
  <path class="st0" d="M110.44,150.34l-.3-3.27-1.49.14c.3,1.11.9,2.15,1.79,3.14Z"/>
  <path class="st0" d="M108.41,42.29c.24,1.18.62,2.38,1.13,3.6l2.15-.6-.3-3.27-2.98.27Z"/>
  <path class="st0" d="M114.15,79.67c-.41-.83-1.11-1.5-2.08-2.01.42.9,1.11,1.57,2.08,2.01Z"/>
  <polygon class="st0" points="114.04 25.16 113.59 29.01 115.08 28.87 115.53 25.03 114.04 25.16"/>
  <path class="st0" d="M112.33,129.56c.12,1.32.51,2.65,1.17,3.99-.25-1.31-.64-2.64-1.17-3.99Z"/>
  <path class="st0" d="M111.72,106.6l.74,3.73,1.89-.17c-.27-1.44-1.14-2.63-2.63-3.56Z"/>
  <path class="st0" d="M111.22,166.47c.25.51.64.84,1.19.99-.24-.44-.64-.78-1.19-.99Z"/>
  <polygon class="st0" points="309.87 38.53 310.02 35.9 308.33 35.5 308.7 38.7 309.87 38.53"/>
  <path class="st0" d="M140.67,221.28c.33,1.37.94,2.58,1.83,3.63,1.5.33,3.14.44,4.93.35-.94-.85-2.11-1.24-3.51-1.18l-3.26-2.8Z"/>
  <path class="st0" d="M145.97,180.98l2.64-.64c-.86-.65-1.9-1.06-3.11-1.21l.47,1.86Z"/>
  <polygon class="st0" points="145.08 141.95 145.85 145.98 147.64 145.82 146.97 141.78 145.08 141.95"/>
  <path class="st0" d="M137.67,172.34l1.13,3.6c1.79-.16,3.45-.92,4.99-2.26,1.48-.6,2.65-1.61,3.52-3.02l-7.07.35-2.58,1.34Z"/>
  <polygon class="st0" points="139.59 212.78 139.57 209.38 136.93 208.92 137.77 213.65 139.59 212.78"/>
  <path class="st0" d="M147.08,135.36c.18.52.59.98,1.23,1.39-.13-.65-.54-1.12-1.23-1.39Z"/>
  <polygon class="st0" points="143.02 107.53 144.51 107.39 143.67 105.97 143.02 107.53"/>
  <path class="st0" d="M153.63,190.38c.11.67.36,1.28.73,1.83.11-.1.23-.19.34-.29-.22-.56-.57-1.08-1.08-1.54Z"/>
  <path class="st0" d="M136.2,147.67l-.16,2.62c.35.17.86.26,1.52.26l-1.37-2.88Z"/>
  <path class="st0" d="M140.75,131.84c1.46-.8,2.72-1.95,3.78-3.45.85-.94,1.51-2.11,1.98-3.48l-5.06,2.67c-.55,1.25-.79,2.67-.71,4.27Z"/>
  <polygon class="st0" points="142.07 121.12 144.98 120.15 142.16 118.91 142.07 121.12"/>
  <polygon class="st0" points="189.1 193.92 190.31 193.7 189.76 192.49 189.1 193.92"/>
  <path class="st0" d="M136.92,196.82c.37,1.17,1.09,2.1,2.16,2.8-.5-1.09-1.22-2.02-2.16-2.8Z"/>
  <path class="st0" d="M185.64,158.13l-.08,1.98,4.35-2.82.07-1.72-2.45-.09c-1.08.62-1.71,1.5-1.89,2.64Z"/>
  <path class="st0" d="M196.71,146.03c.68-.46,1.19-1.01,1.52-1.66-.72.37-1.23.92-1.52,1.66Z"/>
  <path class="st0" d="M191.88,161.35c-.07-.44-.37-.79-.89-1.03.07.4.37.74.89,1.03Z"/>
  <path class="st0" d="M181.81,178.4l.21,3.19.55,1.28,1.22-.68,3.35-7.76,1.42-5.84-.7-5.92c-.73-.6-1.62-1.06-2.66-1.36l-1.29,2.4.81,3.01-.45,3.16-2.45,8.52Z"/>
  <path class="st0" d="M129.54,173.09l1.79-.16c.91-.95,1.31-2.12,1.18-3.51l-1.49.14c-.64,1.06-1.13,2.24-1.48,3.54Z"/>
  <polygon class="st0" points="127.78 142.04 127.62 144.66 129.9 144.45 130.03 142.53 129.67 141.87 127.78 142.04"/>
  <path class="st0" d="M126.2,235.82c-.06.87-.06,1.87-.02,3l1.45-.53c-.16-.99-.63-1.81-1.43-2.47Z"/>
  <polygon class="st0" points="133.95 155.78 134.05 156.87 134.71 156.41 135.23 153.36 134.37 152.74 133.95 155.78"/>
  <path class="st0" d="M122.38,148.54l-1.89.17.17,1.89c.68-.53,1.25-1.22,1.71-2.06Z"/>
  <path class="st0" d="M127.19,61.57l-1.24-4.79-4.13-.32c.63,1.08,1.58,1.99,2.85,2.74.61.88,1.45,1.67,2.52,2.37Z"/>
  <path class="st0" d="M121.08,73.43c-.52-.55-1.18-.86-1.99-.92.52.55,1.18.86,1.99.92Z"/>
  <polygon class="st0" points="308.88 41.04 308.17 44.26 308.84 47.49 311.19 47.3 311.88 44.47 311.71 43.29 308.88 41.04"/>
  <polygon class="st0" points="121.39 76.81 121.13 78.33 122.52 77.1 121.39 76.81"/>
  <path class="st0" d="M28.65,254.19l-12.1-8.69-11.62-15.44c-.64-1.14-1.47-2.2-2.49-3.17l-1.83-3.63c-.12-1.26.13-2.51.75-3.77l7.59-3.4-3.08-.82-5.56.51c-.11,0-.21-.03-.31-.04v7.55c0,18,13.97,32.73,31.66,33.96l-3-3.06Z"/>
  <path class="st0" d="M117.17,165.92l2.54-.63c-.74-.8-1.67-1.45-2.78-1.95l.24,2.58Z"/>
  <path class="st0" d="M205.46,90.57c-.11-.58-.49-1.1-1.13-1.57.06.62.44,1.14,1.13,1.57Z"/>
  <polygon class="st0" points="118.76 60.14 118.7 63.85 121.67 63.57 121.97 62.45 120.94 59.94 118.76 60.14"/>
  <path class="st0" d="M122.9,125.88l1.82-.87c-.85-.59-1.76-1-2.72-1.25l.9,2.12Z"/>
  <path class="st0" d="M134.38,136.53l-1.25,2.72,1.49-.14c.55-.52.89-1.18,1.02-1.99-.23-.31-.65-.51-1.25-.59Z"/>
  <path class="st0" d="M559.77,31.14l-.22,3.89c-.4.95-1.08,1.76-2.04,2.44l-6.37.89.68,1.31,6.18-.23-.31,6.47-2.15,10.26-2.51,6.19-1.46,2.63c-.73.82-1.72,1.47-2.97,1.96l-8.63.77c-1.18,0-2.24-.47-3.19-1.41l-.38,2.05c.65.69,1.53,1.15,2.62,1.38l10.1-.58-.05,3.07c-1.09-.17-2.14-.53-3.16-1.09l-3.29,1.1-2.91,1.71c-.93.46-1.72,1.17-2.39,2.15l3.89-.59,2.75-.81-.17.82-1.75,2.98-.07,1.94.29.54.61.51c.4-.89,1-1.78,1.78-2.66l.81,2.75-2.04,2.44-2.59-.09-.77.39c-.74.76-1.33,1.65-1.78,2.66l.52,2.21-.48.93-.56,2.79.48-.04c.87-.51,1.56-1.21,2.07-2.12.23-1.04.84-1.74,1.83-2.1l-.59,3.36c-.06,1.19-.74,2-2.04,2.44l-3.38-.83-.8.96,1.03,1.6,3.35.51.47,1.65-5.32-.09c-.37.09-.64.3-.83.64.51.87,1.14,1.67,1.91,2.41l.73,1.87-.19.58-.49.85c-.44.47-.97.81-1.6,1.03l-.47-1.65-.71-1.63c-.41.2-.84.51-1.29.92l-2.08,5.58,2.73,1.69.37,1.42-2.83-.07-3.38-.83c-.89.29-1.71.74-2.46,1.35-.35.89-.53,1.93-.53,3.11l3.17,1.17,4.13-.69c-.13.93-.51,1.82-1.13,2.68l-3.26,1.42-3.58.56-2.02-.06.99-1.54c-.25-.94-.77-1.73-1.58-2.36l-.53,3.99c-.29.94-.86,1.82-1.7,2.65l-9.45,4.23-5.56,3.56-6.85,2.62c-.6-.7-1.21-1.5-1.83-2.41-.4-.23-.9-.46-1.51-.67-.06-.64.07-1.32.38-2.05.29-.99.48-2.11.59-3.35l.63-36.31,2.62-18.52,1.43-2.95,1.33-6.8.21-3.97,2.89-1.95c.4-.95.68-2.02.84-3.22l-.92-1.29c.23-.4.58-.7,1.05-.9l1.7.09.07-1.94c-.61-.86-1.16-1.86-1.64-3l.11-7.82c.09-1.35.76-2.27,2.01-2.76l2.27.12-.1-1.12-.27-.3-2.73-1.69,1.27-11.07,3.52-1.2,43.88-3.59c-6.12-9.07-16.49-15.04-28.25-15.04H141.04l.29,3.15-2.55.53c-1.08,1.37-1.56,3.04-1.44,5.03.57,1.15,1.51,1.96,2.83,2.44l-2.05,1.69c.19.65.59.98,1.19.99l2.94-.67,1.13,12.3c-1.28-.82-2.03-2.11-2.26-3.89-.42-1.63-1.19-3.19-2.33-4.69-1.45-.53-3.02-1.26-4.7-2.17l-2.99-4.23-1.16-10.49h-1.82c.06.18.12.36.17.55l-.28,4.53.99,10.81c-1.38.19-2.61.67-3.67,1.44l-2.61-.06-.26,1.52-1.15,3.81.61,2.25c.53-.05,1-.36,1.41-.93.21-1.35.58-2.75,1.11-4.2,1.24-.25,2.57-.74,3.97-1.46l2.54-.63.83.32.14,1.49c.99.64,1.84,1.57,2.56,2.77l2.73,5.75-2.15.6c-1.1.44-2.16,1.17-3.2,2.19l-1.58,3.45-4.35,1.6c-.6-.68-1.04-1.54-1.34-2.58l2.91-.97-4.58-4.08c-1.05.16-2.15.5-3.31,1-.64.99-1.14,2.17-1.48,3.54.25,1.31.86,2.52,1.83,3.63.87.72,1.68,1.65,2.46,2.78l6.4,4.31c.81.79,1.78,1.57,2.91,2.33l2.46,2.78,2.23,3.6c.74.8,1.67,1.45,2.78,1.95,1.18.56,2.26,1.36,3.22,2.4l1.82,3.53c.71,1.2,1.36,2.51,1.96,3.92l-4.06,1.57-10.81.99-3.11-1.21-3.63,1.83c-.81.67-1.32,1.59-1.55,2.74l3.19,2.01-.1,3.31,4.04-.67,1.76,2.84,2.38.88,4.23-2.99,1.95.52-.98,1.29-.16,2.62.46.66c1.26-.05,2.52.24,3.78.85l1.8,3.24c-.87.75-1.5,1.81-1.91,3.18l1.12.2,2.52-.93c.25-.89.69-1.56,1.31-2.02l7.55,73.43c.07,1.46-.05,3.11-.35,4.93l1.13,3.6.97,10.51c-.28,1.29-.8,2.58-1.55,3.84-.87-.72-1.72-1.64-2.56-2.77-.93.09-1.75.53-2.48,1.33l-.29,1.23,1.07,2.9c.63,1.01,1.44,1.94,2.46,2.77l2.2,3.2.08.6c.08-.06.16-.12.25-.18l2.01-4.1c.53-1.26,1.27-2.56,2.2-3.89l1.27-.15-.02.46-2.55,11.23.19,1.99,1.23.78.97-2.94c.27-1.27.74-2.73,1.43-4.39l2.12-8.53-.3-.94-2.38-.09,1.3-2.67c.71-1.17,1.36-2.53,1.95-4.1l7.13-11.32c.52-.99,1.36-2.11,2.51-3.35l2.59-3.55c.91-.76,1.95-1.78,3.1-3.06,1.18-.79,2.23-1.84,3.17-3.13l1.69-4.31-.34,8.8,2.39-.17c.71-1.21,1.27-2.65,1.69-4.31l-.41-4.99,3.06-8.96c1.44-.61,2.58-1.53,3.42-2.78.27-1.4.73-2.95,1.37-4.65l2.27-3.82c.62,1.17,1.16,2.59,1.63,4.24l2.12.08-.46-3.46-1.36-4.23c-.4-1.16-1.05-2.51-1.97-4.05l-1.63-4.24-8.77-15.05c-.8-1.09-1.57-2.36-2.31-3.8l-10.65-21.28c-.63.33-1.35.54-2.15.65l-7.75-10.37-1.97-4.05c-.48-1.21-1.14-2.54-1.97-3.99l-5.23-12.26c-.53-1.12-1.3-2.37-2.31-3.73-1.02-1.01-1.97-2.13-2.85-3.36-.29-1.56-.43-3.29-.4-5.18l5.43.21,6.56,1.78,3.26,1.32.07-1.72c1.74-.55,3.68-.81,5.79-.77,1.81.16,3.8.5,5.99,1.03,1.39.58,3.07,1.13,5.04,1.65,1.39-.57,3.02-.99,4.89-1.27l3.05-.15,3.3.39c1.44.45,2.92,1.15,4.43,2.09,1.2.93,2.17,2.12,2.91,3.56.31,1.2.97,2.47,1.98,3.79l3.2,3.04,4.21,7.78c.71,1.13,1.36,2.48,1.97,4.05l4.9,7.08c.3,1.25.96,2.58,1.97,3.99.44,1.17,1.19,2.43,2.24,3.8l2.18,5.45-1.44-.52-1.81-1.06c0-1.37-.42-2.78-1.3-4.22-.99-.79-2.07-1.82-3.26-3.11l-1.9-3.98c-.48-1.26-1.14-2.58-1.97-3.99-.7-.25-1.51-.46-2.43-.62l.5,2.47,1.7,4.04c.4,1.21,1.05,2.54,1.97,3.99,1.39.72,2.34,1.81,2.86,3.29.49,1.17,1.25,2.43,2.31,3.8,1.15,1.06,1.79,2.39,1.9,3.98-.7,1.03-1.73,1.99-3.09,2.86l-1.57,1.13c.06.8.43,1.56,1.1,2.3.42.64.7,1.38.84,2.22l-2.42.9-8.05,4.4c-1.43.47-2.26,1.42-2.49,2.82l2.98.11,1.6-1.93,9.69-.36.35-2.17c.66-1.08,1.61-2.19,2.84-3.34-.68-.73-1.56-1.43-2.64-2.09l1.86-.19c1.22-.62,2.44-1.39,3.67-2.31.1-1.45.66-2.89,1.69-4.31,1.18-.84,2.24-1.88,3.17-3.13l2.85-3.34,1.94-3.84c.75-1.12,1.4-2.49,1.95-4.1l3.71-8.47c.79-1.12,1.53-2.39,2.2-3.83l2.27-3.89c.44-1.04,1.19-2.23,2.26-3.56l2.85-3.34,1.9-1.19,10.25.66c.67-1.26,1.89-2.03,3.67-2.31l2.14-.45-.51-2.21.36-.72,4.9-1.53c1.34-.39,3.05-.74,5.14-1.06l1.19.05c-.49,1.13-1.51,1.93-3.07,2.4-.78.68-1.43,1.47-1.95,2.38l1.53-.21,4.84-.08c.4-.03.71-.17.94-.43l.34-1.97,4.24.16c1.42-.3,3.04-.48,4.86-.54,1.44.45,2.91,1.17,4.42,2.16.28.85.46,1.83.55,2.94l-.99,1.69-5.38-1.4c-.41.38-.63.86-.65,1.43l2.69.83,1.52.06-.81,3.88-3.89,8.2c-.75,1.03-1.5,2.33-2.27,3.89l-9.32,14.88-6.01,6.4-6.8,11.54c-.44,1.22-1.09,2.52-1.94,3.9l-6.22,11.76-2.53,3.88-3.95,7.93-2.52,3.61c-.53,1.13-1.29,2.4-2.27,3.82l-1.94,3.84c-.63,1.35-1.11,2.9-1.44,4.65l-.33,1.71,1.23-.95,6.07-7.85.65-1.5,3.27,1.12c1.48.63,2.63,1.58,3.47,2.85l1.97,3.99-.67,1.96,2.06,1.54c.98.88,1.96,2,2.92,3.36.85.96,1.6,2.14,2.25,3.53l4.27,7.78c.31,1.2.94,2.53,1.9,3.98.49,1.17,1.25,2.43,2.31,3.8.62,1.08,1.59,2.18,2.92,3.29l1.91,3.72c.84,1.05,1.7,2.32,2.57,3.81.8,1,1.57,2.18,2.32,3.53l7.13,11.08c.66,1.09,1.32,2.35,1.98,3.79.75,1.13,1.4,2.55,1.96,4.25.49,1.12.92,2.53,1.3,4.22-.06,1.5-.8,2.86-2.21,4.09-1.77.11-2.71.98-2.82,2.61,1.48.59,3.16.98,5.06,1.19.47.69.92,1.48,1.34,2.35l4.49-82.95c.12-1.18.46-2.33,1.04-3.44.62.86,1.46,1.68,2.51,2.47l1.06-3.75-4.04.09.88-16.26c.87.2,1.7.64,2.49,1.3l.38,4.37-.1,1.78c.54-.44,1.06-1,1.57-1.7l-.08-4.35c-.2-1.15-.52-2.33-.97-3.55-.95.31-1.96.75-3.02,1.31-.29-1.41-.38-2.97-.29-4.68l1.18-.25,2.84.7c.68.87,1.32,1.88,1.93,3.06l1.95,1.27.6-1.13,1.15-4.05c-.68-.86-1.21-1.96-1.61-3.27l.18-9h-.23c-.67.88-1.32,1.91-1.95,3.07l.77,7.34-.37,1.14-3.2.37.06-1.16c0-1.04-.53-1.63-1.61-1.8-.59-.6-1.04-1.3-1.36-2.09l.27-4.96.78-4.31-.3-4.44,1.27-23.47.36-.84c.8-.47,1.67-.81,2.62-1.02l1.22,4.73c.14,1.15.57,2.34,1.28,3.56.96-.41,1.87-1.06,2.75-1.95l-1.35-2.4-.46-2.9.37-1.14c.18-1.39,1.01-2.33,2.48-2.82,1.22.43,1.95,1.35,2.18,2.76l-.19,3.49.82.67c1.12-.51,1.76-1.46,1.94-2.85l-.66-3.53.78-4.31c.91-.52,1.91-.85,3.01-1l-.06,1.16,1.93,7.41,1.63,1.49c-.37.14-.77.42-1.21.87l1.44.62.34-6.35-.28-.64-.63-4.07-.73-2.37,1.41-.23,1.05-2.27c-.13-.42-.43-.72-.88-.9-.95-.57-1.68-1.49-2.18-2.76l-.63-4.15c.92-.73,2.11-1.23,3.58-1.52l4.06-.4,59.25,3.2c1.38.28,2.93.47,4.63.56l8.09.57-1.5-3.11c-.55-1.29-.96-2.68-1.26-4.16.03-.22.2-.42.51-.61l3.46.82.49-.85,28.96-3.15c1.39-.07,3.06.05,5.03.36,1.6-.14,3.37-.49,5.31-1.04,1.47-.35,3.01-.86,4.62-1.54l4.72-.42,1.15.22c1.28.53,2.31,1.46,3.07,2.79l1.87,4.67c.58,1.13,1.33,2.27,2.24,3.43.71,1.33,1.3,2.86,1.78,4.59l1.84,4.35c.34,1.42.86,3.06,1.57,4.93.13,1.44.7,2.78,1.73,4.04l.42,1.09-.29,3.09-.51.61c1.64.28,2.67,1.32,3.1,3.11l.86,3.31-7.86.38-4.81-.62-2.32-.68,1.21-1.8c-.22-1.22-.7-2.38-1.44-3.5-.44,1.11-.79,2.35-1.04,3.72-.49.58-1.12,1.01-1.9,1.3l-.81-2.75-.85-.49-2.21.52.44,1.33c1.36.25,2.27,1.11,2.73,2.58.9,1.1,2.17,1.74,3.8,1.92l16.37.23,1.03,5.22,6.91,17.91,2.29,4.06,5.97,31.77,1.12,3.53-.17.82-1.12.1c.67.85,1.49,1.64,2.47,2.36.99.83,1.65,1.89,1.98,3.21-1.22.81-1.97,2-2.26,3.58,1.38-.23,2.83-.74,4.38-1.52,1.1-.85,2.43-1.64,3.98-2.37l8.7-3.6c1.3-.44,2.55-1.19,3.75-2.27,1.11-.8,2.44-1.59,3.98-2.37,1.57-.46,3.31-.8,5.22-1.03l5.11.43.73-1.76,1.55-.7,2.68,1.13-1.73,9.5-1.58,4.01-.72.95-5.94.21c.29-.94.77-1.92,1.43-2.95.4-.36.65-.84.76-1.44l-3.68.33c-1.21.86-2.64,1.44-4.28,1.75.27.67.71,1.31,1.3,1.9,1.07.55,2.16,1.29,3.26,2.21l.95,1.61c.83-.34,1.65-.79,2.46-1.35,1.2.81,1.96,2.05,2.27,3.75l-.67,5.14-1.92,3.79-.09,5.33c.07,1.44-.25,2.98-.96,4.6-.23,1.63-.26,3.41-.09,5.32l.23,2.56-.25.83.5,1.97,2.18,21.72-.17.82.25,6.42,3.43,22.17.18,5.62c-.15,1.36-.58,2.79-1.31,4.31l-3.18,1.41c-.15-.42-.36-.77-.66-1.07l-4.69,1.55-11.99,1.07-5.03-.36c-1.38-.36-2.75-.99-4.12-1.89-.55-1.29-1.06-2.83-1.54-4.62-.79-1.06-1.75-2.1-2.86-3.13l-.27-.3-.85.4.64,3.57,1.57,4.94-1.95.74-.83-.25-.68-1.31-.2-2.24c-.52.15-1.07.39-1.63.71l.08.88.32-.03c.45.82.91,1.8,1.39,2.94l-1.39.69c-1.35.55-3,.97-4.96,1.25l-3.09-.29.39-1.97,1.48-2.39-1.68.15-2.72,1.13,1,1.28.41,1.9-3.92.35c-1.72,0-2.74-.94-3.07-2.79l-.77-8.63c.2-.72.51-1.5.92-2.34l-2.06-10.45.45-4.87-.35-3.92-.39-.77-.81-6.37c-.1-1.66.21-3.29.93-4.92.89-.88,1.93-1.81,3.14-2.78l3.75-2.27,3.99.45-.25-2.8,6.41-3.07c1.29-.54,2.34-1.47,3.14-2.78,1.24.05,2.16.69,2.75,1.93.83-.93,1.67-2.03,2.53-3.29.59-.64,1.08-1.44,1.48-2.39l-2,.18.02-3.39c.65.05,1.31.18,1.97.39l1.86,1.85,1.63-.71,2.09-1.88,1.41.44,2.02.06-1.29-1.82c.37-1.27,1.1-2.46,2.18-3.58l3.72-2.59-2.07-.62-4.35.95c-1.12-.54-2.32-1.3-3.59-2.26l.34,1.1.04,3.14-.25.83c-.76,1.14-2.01,1.9-3.75,2.27l-10.16,2.6c-1.49.19-2.71.97-3.66,2.34-1.3.44-2.36,1.29-3.16,2.54-1.21.86-2.05,2.04-2.51,3.53.81.68,1.53,1.47,2.15,2.39l-1.36.12c-1.41.45-2.85,1.14-4.33,2.08l-3.43,2.24-2.31-.6,1.23-1.56,1.24-2.37-1.49-.43c-.52-1.57-.87-3.39-1.05-5.47l-1.98-15.85-.32-.86c-1.04-.77-2.07-1.78-3.09-3.03l-.89-3.63,1.41.44c1.15.81,2.28,1.76,3.39,2.84l1.24,1.26,2.78-.49c1.3.69,2.13,1.9,2.5,3.64l1.38,9.14.4.85.1,1.12.63.75,1.63-.71.09-1.7c.31-1.32.85-2.76,1.63-4.33.73-.82,1.4-1.82,1.99-3-1.66.09-3.3-.22-4.92-.93l1.87-1.62-.71-1.63-2.58-3.64-.96-.8.24-3.65,1.95-.74.81,2.75c.99-.3,1.57-1.03,1.74-2.17-.49-1.3-1.25-2.52-2.26-3.67-1.28-.48-2.57-1.11-3.88-1.91-.92.57-1.75,1.47-2.5,2.72-1.04-.82-1.99-1.86-2.86-3.13l-2.45.54-1.54-.99c-.86-.57-1.91-.96-3.17-1.17l.64,4.45-2.72.24c-.4-.23-.8-.57-1.22-1.02.14-.82.44-1.68.9-2.58l-2.59-3.72c-.74-1.11-1.43-2.45-2.05-4.01-.44-1.3-1.29-2.46-2.57-3.48l-6.39-12.08-.93-4.11.75-.63c.78.95,1.81,1.88,3.07,2.79l.34,1.1-.31,2.85.61.51,3.1,3.11,2.05,4.01.45,1.41c.46-.9.75-1.87.87-2.9-.19-1.54-.63-3.19-1.33-4.96l-1.54-4.62-2.51-.1.32-2.77.75-.63,3.68-.33.82.17c1.5-.03,3.2.09,5.11.35l9.53.28c.27-.02.43-.23.51-.61l-.75-2.11-8.61,1.01-5.32-.09c-1.23-.53-2.43-1.37-3.61-2.5-.71-1.33-1.22-2.87-1.54-4.62l5.94-.29c1.3.1,2.77.07,4.42-.07l.85-.4-.17-1.92-8.7-.03-1.15-.22.54-9.31c.13-1.51.68-2.96,1.63-4.33l.72-4.58c-.32-.51-.71-.77-1.2-.78l-2.48,1.11-2.14,1.32,1.49,4.06-.94,2.1.42,4.72-.14,1.14.05,4.18-1.09.42c-1.13,0-2.43-.19-3.91-.54l-3.36.3-.76-2.19c-.38-1.26-1.23-2.39-2.56-3.4-1.23-.59-2.44-1.42-3.61-2.5l-.11-3.94-.63-.75c-1.09-.76-2.09-1.8-3.02-3.11l-2.86-3.13c.1-.71.41-1.38.95-2.02l-.76-2.19-1.95-.15-.06-3.38c1.3.1,2.64.36,4.02.77l9.19-.82,2.22-.44.73-1.76,2.79.56,5.92-.53,2.22-.44-.47,7.37.07.8.24-.02,2.02.06-.62-6.95c.64-.11,1.26-.35,1.87-.73l1.34-.36c-.51-.87-1.21-1.56-2.12-2.07l-5.62.18-16.02,2.88-2.8.25-2.85-.31c-1.37-.25-2.73-.78-4.09-1.57-.95-1.04-1.71-2.29-2.27-3.75l-.55-2.53,17.76.43-.43,4.23,2.22-.44c.57-1.39,1.59-2.34,3.05-2.85l3.36-.3.2-1.39-.35-.29c-1.56.03-3.34-.08-5.35-.33l-5.11-.43c-1.46-.08-3.17-.31-5.14-.67-1.45-.03-3.06-.26-4.81-.7l-4.82-.7c-1.28-.48-2.54-1.09-3.79-1.84-.29-1.48-.91-2.93-1.84-4.35l-1-1.35-1.98,16.64c-.22,1.23-.85,2.26-1.88,3.08l-27.39-.63.36-6.66,2.12-.51.45,1.81,1.45.39.33-.29-.51-2.05c-.84-.72-1.87-1.27-3.1-1.64l-1.66,3.41-1.07,3.98c-.88.88-2.07,1.31-3.56,1.28l-13.3-1.03-.92-.28c-1.33-.28-2.87-.47-4.63-.56l-4.66.06c-1.16.3-1.87,1.12-2.15,2.45l.38,4.45c-.26.97-.8,1.9-1.63,2.79l-3.05,1.85-.68,2.6c.14.32.41.54.82.67,1.02-.62,2.21-1.05,3.56-1.28l.08,4.35-1.37,3.73c-1.33-.28-2.88-.47-4.63-.56-.87.68-1.88,1.3-3.05,1.85-1.2.14-2.02.88-2.45,2.2l1.15.37,7.05-1.09,2.18,2.76.96,3.86-.27,4.96,20.99-.34.6.34c1.23.27,2.55.73,3.97,1.38.9.67,1.73,1.49,2.51,2.47l.15,2.88-.68,1.13-.78,4.31c.09,1.2.41,2.38.97,3.55,1.09-.04,1.8-.68,2.12-1.9l-.21-7.55,1.2-.56,3.36-1.84,4.07-.63,3.26-1.3,3.81-.1.83.36,3.16,1.88c1.12.27,2.15.92,3.08,1.95l-1.28,29.37c-.28,1.33-.47,2.88-.56,4.63l-.14,2.56-1.52.85c-1.06.46-2.25.86-3.56,1.21l-4.08.71-4.96-.27-4.3-.85-3.16-1.88.86-4.38c.12-1.29.58-2.5,1.36-3.65l2.24-9.82-2.56-.14-.02.31c-.28,1.33-.47,2.88-.56,4.63l-.56,4.63c-.77.74-1.66,1.46-2.68,2.19-.48,1.11-.85,2.36-1.13,3.74l.43,3.52-.86.19-24.71-1.34c-1.29-.02-2.57.22-3.85.72l-.47,14.5-3.53.66-.98,2.28.82.67,3.78.44-.54,9.91.19.86-1.05,9.26-1.06,3.75,1.14.37,2.9-.47,17.78.11.83.36,4.1.22.53.26c1.28.28,2.12,1.1,2.51,2.47l-.21,9.62c-.06,1.03.07,2.02.38,2.97l1.28-13.68.03-.54,4.45-.38,3.72.2.91.36,12.8.38.87-.19,3.21-.45-.06,1.16,3.18.17-.78,47.42-110.36-5.97-.31-4.37,1.34-24.82c-.89.15-1.85.23-2.88.21l-12.05-.2-1.2.22-5.43-.21-1.26.15-13.23-.71-5.99-.96c-1.35-.58-2.73-1.47-4.14-2.68l-.79-3.68.36-.71c.56-.91,1-1.97,1.32-3.2l-1.17-.51c-.56.69-.98,1.4-1.27,2.14l-1.82-1-2.85-3.36-5.29-12.46c-1.02-.97-2-2.06-2.92-3.29-.85-1-1.6-2.18-2.25-3.53l-2.24-3.8-1.69-4.24-.49-2.73,2.47-.37c1.51-.29,3.12-.74,4.82-1.34l8.07-4.79,6.58-5.71-1.23-.78-2.11,1.44-8.64,4.04-3.74,2.38c-1.26.61-2.49,1.45-3.67,2.51-.6.55-1.13,1.19-1.6,1.93-.93-.04-1.83-.22-2.7-.57l-2.59-3.35c-1.43.52-2.79,1.28-4.06,2.3l-11.84,18.5-3.95,8c-.41,1.35-1.54,2.13-3.4,2.32-1.94-.07-4.07,0-6.37.22l-5.15,1.26c-1.31.61-2.64,1.38-4,2.3.3,1.38,1.38,2.17,3.22,2.38l-1.67,3.85-.06,1.46-11.78-.45-.76-4.4,2.64-13.42-1.17-.57-1.35-4.49c-.29-1.56-.43-3.26-.4-5.12l.39-1.51c-.04-.22-.23-.38-.58-.49l-1,1.95c-.46,1.53-.72,3.22-.79,5.07l-.32,15.23-.3.98c-.15,1.5-.6,3.05-1.37,4.65-1.06,1.06-2.49,1.58-4.3,1.56l-.9-.76,2.39-13.96c-.63.28-1.15.68-1.57,1.2l-.54,5.35c-.23,1.32-.68,2.78-1.36,4.39-.62,1.26-1.68,2.37-3.18,3.32l-3,.35.1-2.65.74-3.68-1.18-.31c-.25,1.25-.73,2.55-1.44,3.89l-.98,9.52c-.86.81-1.53,1.88-2.01,3.19l-1.11,4.2-3.45,7.12c-.64.99-1.46,1.93-2.44,2.83l-1.95,2.78-3.45,7.12-2.87,2.56c-.73.8-1.65,1.62-2.78,2.46-.85.88-1.87,1.74-3.06,2.58l-14.39,7.73-4.18,1.26h411.08c18.81,0,34.05-15.24,34.05-34.05V34.05c0-1.93-.17-3.82-.48-5.66l.25,2.76ZM144.53,54.37l-2.49-2.07-2.3-5.39-.55-5.95.22-.82c-.07-1.46.2-2.85.82-4.18l3.36-3.71,2.31,20.79c-.35.57-.81,1.01-1.38,1.33ZM157.98,184.38l-1.85.57-.31-3.37,2.32.19-.16,2.62ZM261.48,40.1l-.6-1.55,2.46-.1.53,1.74-2.38-.09ZM319.78,44.89l.46-4.09c-.13-1.51-.51-3.08-1.14-4.72l-1.1-1.22-.78,2.91.65,9.59-.88.57-10.75,4.93,1.11-20.6,14.78,1.11.47,2.9-.56,4.63.28.64c.36,1,.68,2.19.97,3.55l-3.49-.19ZM485.43,180.44l4.33-2.08,2.48-.22.55,2.53c-.08.33-.24.61-.49.85l-7.99,1.6c.24-.93.61-1.83,1.13-2.68ZM473.52,157.09c-.58-.48-.91-1.13-.98-1.93.42.5.75,1.14.98,1.93ZM469.68,152.03l-.38,2.05-.98-1.93,1.36-.12ZM196.26,211.16l-12.98-.23c.42-.47.94-.87,1.57-1.2l4.85-.28c1.2-.26,2.43-.64,3.69-1.12l3.05-1.87c.44.11.74.38.9.83l-1.08,3.87ZM440.06,109.8l-2.02-.95-.89-3.63c1.23-.11,2.55-.04,3.97.21.05,1.12-.03,2.37-.23,3.73l-.83.64ZM440.96,109.96c1.08.06,2.06.54,2.95,1.43l-2.78.49-.17-1.92ZM442.02,115.51l-.76-2.19,2.24-.2c.71.21,1.5.51,2.34.92.08-.28.13-.66.14-1.14.05-1.24.61-2.23,1.67-2.97.82.79,1.48,1.86,1.98,3.21l1.74,3.23c-1.02.63-2.2,1.19-3.56,1.69-.85-.51-1.9-.8-3.14-.85-1.08-.07-1.96-.63-2.65-1.7ZM463.44,154.28l.65-1.75.74,1.95-.75.63-.64-.83ZM536.06,111.31c-.62-.27-1.13-.68-1.56-1.23l2-.18-.44,1.41Z"/>
  <path class="st0" d="M118.47,168.1l-1.49.14c-.44.98-.7,2.13-.78,3.47l1.59.96c.4-1.44.63-2.96.68-4.56Z"/>
  <polygon class="st0" points="138.72 0 138.04 0 138.1 .74 138.72 0"/>
  <polygon class="st0" points="16.62 237.58 16.72 235.38 14.47 234.78 15.11 238.53 16.62 237.58"/>
  <path class="st0" d="M118.79,204.19c-.13-.65-.54-1.12-1.23-1.39.19.58.6,1.05,1.23,1.39Z"/>
  <polygon class="st0" points="119.66 176.6 117.77 176.77 118.04 179.75 120.33 179.54 119.66 176.6"/>
  <path class="st0" d="M125.18,167.09c-.38-.5-.91-.82-1.59-.96.32.64.85.96,1.59.96Z"/>
  <path class="st0" d="M131.22,163.13c.65,1.28,1.49,2.46,2.53,3.57,2.04-.25,4.26-.86,6.64-1.81l-.27-2.98c-1.12.17-2.32.55-3.6,1.13-.34.7-.92,1.25-1.75,1.66-.35-.9-1.05-1.6-2.09-2.11l-1.45.53Z"/>
  <path class="st0" d="M535.94,84.66l.79-3.78-1.44.13c-.92,1.1-1.63,2.48-2.13,4.14l-.65,2.64c.47.5,1.07.9,1.8,1.21.66-1.08,1.2-2.52,1.63-4.33Z"/>
  <path class="st0" d="M515.74,233.08l.8-.07c-.04-.48-.27-.92-.68-1.31l-.12,1.38Z"/>
  <path class="st0" d="M260.09,67.55l.39-1.44-.65-.29-2.74.62c.2.49.49,1.01.87,1.56l2.14-.45Z"/>
  <path class="st0" d="M518.52,176.68l1.97-.5c-.59-.59-1.3-.99-2.12-1.18l.15,1.68Z"/>
  <path class="st0" d="M459.19,40.67c-.08-.85-.57-1.29-1.49-1.32.08.85.57,1.29,1.49,1.32Z"/>
  <polygon class="st0" points="518.68 131.39 518.8 129.13 518.43 128.6 516.46 128.21 517.37 132.07 518.68 131.39"/>
  <polygon class="st0" points="452.75 40.68 452.8 41.24 453.33 40.87 452.75 40.68"/>
  <path class="st0" d="M477.05,203.09c-.36-1.04-1.16-1.61-2.41-1.72.36,1.04,1.16,1.61,2.41,1.72Z"/>
  <polygon class="st0" points="518.39 171.62 520.84 171.08 520.62 168.6 517.59 168.87 518.39 171.62"/>
  <path class="st0" d="M519.87,144.82l-.09,1.7,1.65-.47c-.12-.79-.64-1.2-1.56-1.23Z"/>
  <polygon class="st0" points="520.22 160.5 520.85 161.25 522.14 160.33 523.16 150.08 520.31 149.78 519.9 156.9 520.22 160.5"/>
  <path class="st0" d="M305.65,116.6l1.18-.25c-.02-.52-.18-.99-.47-1.42l-.71,1.67Z"/>
  <path class="st0" d="M253.31,87.24l-1.09-2.76c-.66-1.17-1.84-2.04-3.55-2.59-.49,1.13-.84,2.33-1.07,3.6l.3.81c1.21.75,2.69,1.3,4.44,1.63.45-.12.76-.35.95-.69Z"/>
  <path class="st0" d="M246.88,73.47c-.93,1.07-1.49,2.44-1.68,4.11l.26,1.93,2.99-.08,1.87-.46-.22-2.92c-.07-1.55-1.15-2.41-3.21-2.58Z"/>
  <path class="st0" d="M246.68,109.58c-.2-.58-.67-1.02-1.41-1.31.2.58.67,1.02,1.41,1.31Z"/>
  <polygon class="st0" points="248.51 110.38 248.43 112.36 249.31 111.87 249.96 110.43 248.51 110.38"/>
  <path class="st0" d="M247.67,116.78c1.38-.39,2.21-1.2,2.48-2.42-1.03.27-2.15.65-3.36,1.13.02.53.32.96.88,1.29Z"/>
  <path class="st0" d="M309.99,75.2l.04,3.5,2.34-.18c.32-.14.54-.41.67-.82l-.39-4.37c.03-1.55-.57-2.96-1.79-4.21-.46,1.89-.76,3.92-.87,6.09Z"/>
  <path class="st0" d="M464,59.33c-.35-.88-1.06-1.38-2.15-1.5l.17,1.92,1.98-.42Z"/>
  <path class="st0" d="M482.95,196.93l2.75-.81c-.95-.45-2.01-.81-3.16-1.09l.41,1.9Z"/>
  <polygon class="st0" points="461.77 53.33 461.52 54.16 462.08 54.11 462.01 53.31 461.77 53.33"/>
  <path class="st0" d="M516.25,166.49l.26.22,1.42-.37c-.36-.45-.88-.78-1.54-.99l-.14,1.14Z"/>
  <path class="st0" d="M504.25,135.82l.17,1.92c.45-.41.77-1.01.97-1.78l-1.14-.14Z"/>
  <path class="st0" d="M499.49,158.4l-.92,2.34,1.36-.12c.53-.1,1.07-.34,1.63-.71l1.03,1.6,2.46,2.28,3.19,1.41,1.39-.69c-.16-.58-.4-1.2-.73-1.87-.61-.86-1.36-1.73-2.25-2.62l-3.48-1.06-3.68-.56Z"/>
  <path class="st0" d="M500.59,145.41l1.31-.68c-.48-.55-1.08-.98-1.81-1.29l.5,1.97Z"/>
  <path class="st0" d="M497.18,170.45c-.05-.53-.28-.99-.69-1.39.1.53.33.99.69,1.39Z"/>
  <path class="st0" d="M365.78,222.69c.18,1.46.96,2.75,2.35,3.86-.6-1.33-1.39-2.61-2.35-3.86Z"/>
  <polygon class="st0" points="495.8 144.95 495.19 144.44 495.34 146.12 495.8 144.95"/>
  <path class="st0" d="M483.49,133.4l.78-.31c.64-.59.95-1.37.92-2.34-1.03.47-1.6,1.35-1.7,2.65Z"/>
  <path class="st0" d="M498.24,150.61l-.09,2.59,1.44-.13c.46-.9.75-1.86.87-2.9l-.25-2.8-1.12.1-.85,3.14Z"/>
  <path class="st0" d="M484.9,155.51l.66,1.07,2.45-.54c1.05-.31,1.55-1,1.51-2.07-.85-.46-1.81-.75-2.9-.87l-1.72,2.41Z"/>
  <path class="st0" d="M487.58,147.7c-.4.9-.7,1.83-.88,2.82l1.36-.12.88-2.82-1.36.12Z"/>
  <path class="st0" d="M501.87,153.43l.25,2.8,1.87-.73.14-2.03c-.65-.05-1.4-.06-2.26-.04Z"/>
  <path class="st0" d="M491.14,219.24c.27.62.76,1.06,1.49,1.32-.28-.67-.77-1.11-1.49-1.32Z"/>
  <path class="st0" d="M498.9,192.45c.36.4.83.62,1.43.68-.36-.4-.84-.62-1.43-.68Z"/>
  <polygon class="st0" points="498.13 187.44 497.56 190.07 498.92 189.95 499.25 187.34 498.13 187.44"/>
  <path class="st0" d="M512.19,158.96l.78,2.43,1.9-.41c-.19-1.49-1.08-2.16-2.68-2.02Z"/>
  <path class="st0" d="M488.65,188.61l-.04,2.26,2.21-.52c-.55-.7-1.27-1.28-2.17-1.74Z"/>
  <path class="st0" d="M509.02,221.03c-.04-.48-.27-.91-.68-1.31l-2.41,1.91c-.26.67-.38,1.43-.36,2.29.62-.81,1.42-1.55,2.38-2.23l1.07-.66Z"/>
  <path class="st0" d="M502.47,204.45c-.25-1.05-.95-1.63-2.09-1.75.16,1.22.86,1.8,2.09,1.75Z"/>
  <path class="st0" d="M510.67,170.85c.45.82,1.07,1.51,1.88,2.09.78.31,1.65.42,2.61.33-.38-.66-.92-1.26-1.61-1.79l-2.88-.63Z"/>
  <rect class="st0" x="506.07" y="234.77" width="1.44" height="1.93" transform="translate(-18.93 45.93) rotate(-5.09)"/>
  <path class="st0" d="M487.1,192.93l.17,1.92,1.66-.39c-.38-.61-.99-1.12-1.83-1.53Z"/>
  <polygon class="st0" points="508.15 53.95 510.34 53.19 508.03 52.59 508.15 53.95"/>
  <path class="st0" d="M509.92,35.83c.42.45.89.7,1.44.76l-1.44-.76Z"/>
  <path class="st0" d="M507.58,43.93c.48-.1.91-.32,1.31-.68l.14-2.03-2.24.2c.12.79.39,1.63.79,2.51Z"/>
  <path class="st0" d="M510.72,101.81l-.07,1.94c.63.43,1.4.63,2.31.6-.41-1.04-1.16-1.88-2.24-2.54Z"/>
  <path class="st0" d="M507.6,60.44c-.39-.77-1.01-1.44-1.87-2.01.4.82,1.02,1.49,1.87,2.01Z"/>
  <path class="st0" d="M516.25,91.49c-.09-.96-.67-1.47-1.75-1.54l-.36,2.29.31.78c.39.72,1,1.31,1.85,1.77l-.05-3.3Z"/>
  <path class="st0" d="M514.96,114.08c.32-1.21.86-2.39,1.62-3.53l.48-.93,3.65.24.92-2.34-.07-.8-.54.29-3.11-.53-3.43,2.24c-1.02.63-1.88,1.46-2.6,2.49l-.23,3.73.31.78c1.04-.36,2.04-.91,3-1.64Z"/>
  <path class="st0" d="M527.87,35.68l.44,1.33,2.21-.52c-.7-.64-1.59-.91-2.65-.81Z"/>
  <path class="st0" d="M527.2,94.14l1.7.09,1.1-.34-.55-2.53-1.38-.12c-.51.9-.8,1.87-.87,2.9Z"/>
  <path class="st0" d="M518.01,98.58c-.36-.99-1.15-1.48-2.39-1.48l-.15,3.72c.71.74,1.59,1.31,2.65,1.7l-.11-3.94Z"/>
  <path class="st0" d="M531.88,77.13l.13,1.44,3.04-.27c-.83-.84-1.88-1.23-3.17-1.17Z"/>
  <path class="st0" d="M535.45,23.16l-1.65.47c.28.78.73,1.57,1.34,2.38l1.36-1.01c-.11-.69-.47-1.3-1.05-1.84Z"/>
  <polygon class="st0" points="498.18 118.32 500.1 118.15 500.17 115.4 498.17 115.58 498.18 118.32"/>
  <path class="st0" d="M526.69,82.1c-.85-.46-1.81-.75-2.9-.87l-4.33,2.08c-.33.51-.55,1.1-.65,1.75l.58.19,1.34-.36.53-.37,4.09-2.06,1.34-.36Z"/>
  <path class="st0" d="M552.89,48.03c-.39.41-.65.89-.76,1.44l1.44-.13c-.1-.47-.32-.91-.68-1.31Z"/>
  <polygon class="st0" points="533.65 37.33 534.29 38.16 535.97 38.01 535.72 35.22 533.72 35.4 533.65 37.33"/>
  <path class="st0" d="M529.55,101.5l2.55-3.05c-1.17-.49-2.44-.83-3.8-1.03l-3.02.51.2,2.24c1.23.54,2.58.98,4.07,1.33Z"/>
  <path class="st0" d="M521.61,35.11c.41.98,1.22,1.64,2.43,1.96-.22-1.22-1.03-1.87-2.43-1.96Z"/>
  <path class="st0" d="M24.81,241.73l1.57,4.06c1.23.29,2.42.91,3.57,1.87.97.44,2.11.84,3.41,1.19l3.15.51c.32-.1.53-.38.62-.86l.99-1.19,2.02,1.32,4.17.72,4.5-1.11,3.27-.3v-4.5s-1.18-.69-1.18-.69c-1.47-.07-2.99-.29-4.56-.68-.8-.73-1.74-1.14-2.82-1.24l-3.1,2.18c-.94.69-2.03,1.15-3.27,1.4l-4.54-.38c-1.4.06-2.71-.45-3.94-1.54l-3.87-.75Z"/>
  <path class="st0" d="M537.3,46.6c-1.42-.3-2.95-.54-4.57-.72-.59.64-1.08,1.44-1.48,2.39l3.72,1.04,4.19-.94c-.39-.72-1-1.31-1.85-1.77Z"/>
  <path class="st0" d="M541.2,24.34l1.42-.37c-.44-.66-1.04-1.09-1.81-1.29l.39,1.66Z"/>
  <path class="st0" d="M132.83,57.65l-.27-2.98-1.88.17c-.56,1.12-.81,2.41-.74,3.87.87.72,1.68,1.65,2.46,2.77.29-1.16.44-2.44.45-3.84Z"/>
  <path class="st0" d="M167.93,37.7l.86.03v-.26s-3.24-1.58-3.24-1.58c-1.17-.66-2.65-1.05-4.46-1.17.62,1,1.7,1.7,3.23,2.11l3.61.87Z"/>
  <path class="st0" d="M508.48,73.01c.84.36,1.8.57,2.88.63l13.56-1.53,5.45-2.18c.49-.47,1.01-1.06,1.54-1.75-.57-.32-1.23-.56-2-.71-.58.7-1.39,1.25-2.43,1.67l-17.8,1.83c-.6.54-.99,1.22-1.19,2.04Z"/>
  <polygon class="st0" points="136.44 56.62 137.59 56.11 136.66 54.69 136.44 56.62"/>
  <path class="st0" d="M139.69,59.32l-1.49.14-1.15,3.81,1.46-.43c.92-.89,1.31-2.05,1.18-3.51Z"/>
  <path class="st0" d="M161.06,42.34c.5-.25.82-.63.97-1.16-.54.29-.87.67-.97,1.16Z"/>
  <path class="st0" d="M181.05,49.8l.33-1.71-2.37-.36c-.04,1.02.64,1.7,2.04,2.07Z"/>
  <path class="st0" d="M285.04,47.63c.07.4.35.74.82,1.03-.08-.36-.35-.7-.82-1.03Z"/>
  <path class="st0" d="M281.87,44.06l-1.83-.6-4.21-.89c.54.99,1.21,1.92,2.01,2.79,1.13.44,2.33.73,3.61.87l.41-2.17Z"/>
  <path class="st0" d="M287.79,38.39l-.3.98,1.21-.48c-.17-.23-.47-.39-.91-.5Z"/>
  <path class="st0" d="M548.58,47.52l-1.31.68,1.22,1.02,1.07-.66c-.2-.41-.52-.76-.98-1.04Z"/>
  <path class="st0" d="M503.69,114.2l.35.29,3.55-.88-.57-2.77-2.17-2.63c-.36-1.04-.83-2.13-1.42-3.26-.97.62-1.83,1.45-2.6,2.49l-.34,2.53c.09.37.3.65.64.83l4.08-1.25-1.32,3.26-.2,1.39Z"/>
  <polygon class="st0" points="501.57 124.78 501.52 124.22 501.2 124.25 501.57 124.78"/>
  <polygon class="st0" points="504.1 99.82 504.76 100.89 506.63 100.16 504.1 99.82"/>
  <path class="st0" d="M515.82,86.7c-.9-.4-1.83-.7-2.82-.88-.65,1.13-1.63,1.89-2.94,2.28l-2.92,1.63c-.97.62-1.84,1.37-2.62,2.25l.34,1.1,2.16-1.08,5.88-3.59c.98-.41,1.95-.98,2.91-1.71Z"/>
  <path class="st0" d="M548.34,19.51c-1.09.47-1.65,1.36-1.7,2.65,1.2-.43,1.76-1.31,1.7-2.65Z"/>
  <path class="st0" d="M546.75,64.04l1.92-.17.33-2.61-1.68.15c-.36.78-.55,1.66-.57,2.63Z"/>
  <path class="st0" d="M264.22,54.92l-2.12-.08c-.34.87-.58,1.86-.71,2.95l-.07,1.92,1.22-.68,1.3-2.67.39-1.44Z"/>
  <polygon class="st0" points="545.6 39.41 546.13 39.04 546.42 35.96 544.74 36.11 544.51 38.94 545.6 39.41"/>
  <path class="st0" d="M542.85,49.16l1.42-.37c-.16-.58-.49-1.03-1.01-1.36l-.41,1.73Z"/>
  <path class="st0" d="M493.79,160.36l2.24-.2c-.27-1.21-1.02-2.08-2.25-2.62v2.82Z"/>
  <path class="st0" d="M367.09,73.63c.03-.52-.13-1.02-.46-1.5l-.93,1.43,1.39.08Z"/>
  <path class="st0" d="M402.1,148.61c-.38.34-.61.82-.7,1.44.39-.44.62-.92.7-1.44Z"/>
  <path class="st0" d="M354.92,57.28c-.38-.64-.94-1.27-1.69-1.88.06.88.29,1.88.69,2.99l3.24.41c-.59-.65-1.34-1.16-2.25-1.52Z"/>
  <polygon class="st0" points="359.63 50.54 358.63 53.36 358.55 54.83 359.11 54.55 360.18 50.57 359.63 50.54"/>
  <polygon class="st0" points="396.41 140.46 396.67 141.33 396.72 140.48 396.41 140.46"/>
  <path class="st0" d="M401.3,124.72l.08-1.47-.53-.34c-.71.69-1.25,1.54-1.61,2.55-.06,1.03.09,2.1.45,3.21l.73-3.46.88-.5Z"/>
  <path class="st0" d="M390.03,129.01c-.23-.53-.7-.94-1.41-1.24.23.58.7,1,1.41,1.24Z"/>
  <path class="st0" d="M395.04,144.19c.51-.85.85-1.82,1.01-2.9l-2.76,2.18c-.7.43-1.2,1.08-1.5,1.94,1.05-.25,2.13-.66,3.25-1.22Z"/>
  <path class="st0" d="M382.7,135.37l.44-2.31c-.14-.32-.44-.54-.9-.67-.77.74-1.39,1.69-1.86,2.85.1,1.09.43,2.17.99,3.24l1.33-3.11Z"/>
  <path class="st0" d="M390.07,122.64c.13.42.4.72.81.9.59-.33,1.1-.79,1.55-1.39l.36-.84-.85-.05-1.86,1.38Z"/>
  <path class="st0" d="M387.18,132.97l-.63,1.68,2.56.14c-.16-.94-.8-1.54-1.92-1.81Z"/>
  <polygon class="st0" points="384.52 48.63 383.04 48.55 382.36 49.67 382.61 50.85 383.78 50.68 384.52 48.63"/>
  <path class="st0" d="M381.59,59.58c.03.47.3.77.81.9l.92-1.12,3.45.81,2.28.98c.32-.14.51-.41.59-.82l1.31-6.92-1.15-.37-5.52,4.36c-.91.52-1.8,1.25-2.68,2.19Z"/>
  <polygon class="st0" points="367.02 37.5 366.71 37.49 366.13 38.08 366.97 38.36 367.02 37.5"/>
  <polygon class="st0" points="405.09 31.96 405.38 32.49 406.15 32.18 405.09 31.96"/>
  <path class="st0" d="M382.47,69.18l3.18.17c-.19-1.25-.49-2.51-.88-3.78-1.23.76-2,1.96-2.29,3.6Z"/>
  <path class="st0" d="M367.29,54.14l1.16.06c0-1.04-.12-2.1-.37-3.2l-.79,3.14Z"/>
  <polygon class="st0" points="373.52 68.15 374.37 68.2 374.2 67.02 373.52 68.15"/>
  <path class="st0" d="M373.9,72.52l-.37,1.14.52.34,1.18-.25c.94-.1,1.84-.55,2.71-1.33.04-.83-.42-1.32-1.4-1.47l-2.65,1.57Z"/>
  <path class="st0" d="M379.03,46.62c.01-1.19-.62-1.9-1.9-2.12.37.85,1,1.56,1.9,2.12Z"/>
  <path class="st0" d="M352.03,132.23l.38-2.62-1.16-.06c0,.93.26,1.83.79,2.68Z"/>
  <polygon class="st0" points="392.41 230.19 395.07 229.79 392.16 229.01 392.41 230.19"/>
  <path class="st0" d="M393.76,226.77l.78-2.83-1.78-.1c.1,1.04.43,2.02,1.01,2.93Z"/>
  <path class="st0" d="M397.93,214.18l-.11,2.09.93-1.43c-.14-.32-.41-.54-.82-.67Z"/>
  <polygon class="st0" points="401.46 219.34 398.83 219.2 398.7 221.52 400.75 221.09 401.46 219.34"/>
  <polygon class="st0" points="403.31 206.62 402.78 210.71 403.65 210.45 404.17 206.67 403.31 206.62"/>
  <path class="st0" d="M392.23,211.85c.14.32.41.54.82.67.67-.95,1.12-2.01,1.34-3.19l-1.72.22-.44,2.31Z"/>
  <path class="st0" d="M372.96,213.45l-1.47-.08c-.81.53-1.62,1.26-2.45,2.2l-.65,1.98,1.41-.23c.86-.52,1.67-1.15,2.43-1.89l.73-1.98Z"/>
  <path class="st0" d="M389.39,221.33l-1.47-.08c.21.84.67,1.54,1.36,2.09l.11-2.01Z"/>
  <polygon class="st0" points="377.77 220.7 377.51 219.83 376.13 219.45 375.68 222.06 376.25 222.95 377.12 222.68 377.77 220.7"/>
  <polygon class="st0" points="386.33 213.32 387.51 213.07 387.01 212.19 386.33 213.32"/>
  <path class="st0" d="M345.85,111.47l-.7,1.44c.43-.39.67-.87.7-1.44Z"/>
  <path class="st0" d="M375.9,116.05c-1.63.43-3.22,1.22-4.79,2.38l-2.4,1.27-.41,1.76.84.36c1.52-.43,3.11-1.13,4.77-2.07,1.19-.92,1.85-2.15,1.99-3.7Z"/>
  <path class="st0" d="M404.73,239.32l-.11,2.01,1.47.08c-.22-.79-.67-1.49-1.36-2.09Z"/>
  <polygon class="st0" points="353.37 150.64 353.52 152.12 354.76 150.71 353.37 150.64"/>
  <path class="st0" d="M370.71,153.05l2.01.11c0-1.14-.53-2.15-1.62-3.04l-.39,2.93Z"/>
  <path class="st0" d="M417.55,52.52c-.02-.25-.08-.5-.14-.75l-.04.31.18.44Z"/>
  <path class="st0" d="M351.83,136.03l-.11,2.01,1.41-.23c-.22-.74-.65-1.33-1.3-1.78Z"/>
  <path class="st0" d="M381.47,146.64c.06-1.14-.47-1.84-1.59-2.11,0,1.09.52,1.79,1.59,2.11Z"/>
  <path class="st0" d="M346.86,135.99c.36-.03.66-.2.88-.5.03-.52-.13-1.02-.46-1.5l-.42,2Z"/>
  <path class="st0" d="M351.45,125.76c.24.32.62.55,1.13.68l.23-4.34-.84-.36-.53,4.01Z"/>
  <path class="st0" d="M437.12,32.49l-3.6.32-.1,2.51.4.85,2.4-1.1c.47-.74.77-1.6.9-2.58Z"/>
  <path class="st0" d="M435.45,89.67l-.88-.81c.15.52.44.79.88.81Z"/>
  <path class="st0" d="M431.21,89.16l3.04-.27c-.91-.56-1.98-1.11-3.21-1.65l.17,1.92Z"/>
  <rect class="st0" x="468.85" y="145.09" width=".24" height=".56" transform="translate(-11.04 42.17) rotate(-5.09)"/>
  <path class="st0" d="M439.36,98.34l.72-.95,1.22-2.61c-.37-.56-.89-.99-1.57-1.31l-.37,4.87Z"/>
  <path class="st0" d="M468.07,130.26l-.22-2.48-1.44.13c.24.89.79,1.68,1.66,2.35Z"/>
  <path class="st0" d="M470.38,147.22c-.21-.57-.53-1.11-.95-1.61.06.69.38,1.23.95,1.61Z"/>
  <path class="st0" d="M445.12,87.92l.18-1.63-1.36.12c.22.62.61,1.13,1.18,1.51Z"/>
  <path class="st0" d="M449.13,88.69l-.9-1.05c.1.53.4.88.9,1.05Z"/>
  <path class="st0" d="M446.5,106.09c.43-.04.78-.26,1.07-.66l.39-1.97-.37-.53-1.95-.15c.21,1.11.49,2.21.86,3.31Z"/>
  <path class="st0" d="M445.95,97.19c.44.71,1.06,1.3,1.85,1.77-.09-1.06-.71-1.65-1.85-1.77Z"/>
  <path class="st0" d="M465.46,138.96c-.1-.53-.34-1.07-.71-1.63l-1.09.42.97,1.85.83-.64Z"/>
  <path class="st0" d="M484.29,142.35l3.09.29.46-1.17c.97-.52,1.86-1.16,2.65-1.93l-4.21-.19c-1.47.35-2.13,1.35-1.99,3Z"/>
  <path class="st0" d="M472.52,167.57l-1.1.34c.63,1.02,1.46,1.88,2.49,2.6l.75-.63c-.61-.8-1.32-1.57-2.14-2.31Z"/>
  <polygon class="st0" points="405.12 43.91 404.99 52.06 406.15 52.13 406.4 51.91 406.62 47.8 406.98 46.97 407.12 44.33 405.12 43.91"/>
  <path class="st0" d="M459.52,141.98c1.29.64,2.83.98,4.6,1.04-.79-1.06-1.75-2.1-2.86-3.13-.89-.94-1.99-1.78-3.29-2.53.29,1.48.81,3.02,1.54,4.62Z"/>
  <path class="st0" d="M486.94,127.78c.1.58.41,1.01.92,1.29-.1-.53-.41-.96-.92-1.29Z"/>
  <path class="st0" d="M460.88,72.26c-.97-.07-2.01-.28-3.11-.61-.34-.83-.79-1.62-1.34-2.38l-1.72,2.41-3.07.84c-.39.47-.61,1.05-.65,1.75l21.45,1.15c.89-.24,1.29-.84,1.21-1.8-.79-.47-1.65-.76-2.58-.9l-10.19-.46Z"/>
  <path class="st0" d="M483.16,176.69l.07-1.94-1.68.15c.33.72.87,1.32,1.61,1.79Z"/>
  <polygon class="st0" points="460.51 125.06 458.03 125.28 458.84 128.02 460.5 127.64 460.51 125.06"/>
  <path class="st0" d="M466.17,144.21c-.36-.4-.84-.73-1.46-1,.32.62.81.95,1.46,1Z"/>
  <path class="st0" d="M476.17,183.27c-.65.54-1.15,1.23-1.51,2.07l.15,1.68,1.33-.44c.66-.43,1.25-1.05,1.77-1.85-.08-.91-.66-1.39-1.74-1.46Z"/>
  <path class="st0" d="M440.48,38.63l1.63-.71c-.45-.82-1.15-1.4-2.09-1.75-.59.64-1.08,1.44-1.48,2.39l.85.49.53-.37.56-.05Z"/>
  <path class="st0" d="M490.3,171.86l1.34-.36c.76-.55,1.36-1.28,1.82-2.18,1.06-.09,1.76-.72,2.09-1.88l-1.15-2.96c-.69-.53-1.48-.94-2.37-1.24-.42.73-.61,1.61-.57,2.63.66.75,1.19,1.64,1.61,2.68l-2.33,1.9-.44,1.41Z"/>
  <path class="st0" d="M437.34,56.63l.85.49c.98-.41,1.98-.98,2.99-1.72.33-1.1.49-2.33.48-3.67-1.25.43-2.51,1.11-3.77,2.03l-.55,2.87Z"/>
  <path class="st0" d="M442.96,47.43c.15.47.45.82.9,1.05-.1-.47-.4-.82-.9-1.05Z"/>
  <polygon class="st0" points="404.68 57.87 406.7 57.75 407.11 55.98 405.02 55.87 404.68 57.87"/>
  <path class="st0" d="M445.15,59.32l.32,3.6,2.48-.22c-.5-1.41-1.43-2.53-2.8-3.38Z"/>
  <polygon class="st0" points="405.62 40.73 405.58 40.67 405.6 40.76 405.62 40.73"/>
  <polygon class="st0" points="405.87 73.08 404.14 72.14 404.37 73.62 405.87 73.08"/>
  <path class="st0" d="M419,58.83c.54.6,1.22.99,2.04,1.19-.53-.54-1.21-.94-2.04-1.19Z"/>
  <polygon class="st0" points="460.28 103.49 462.86 103.5 467.5 102.28 467.65 100.25 465.07 100.24 461.03 101.97 460.28 103.49"/>
  <path class="st0" d="M468.03,110.93l4.93-.76c-.91-.62-1.98-1.17-3.21-1.65l-4.74.1c.2,1.7,1.21,2.47,3.03,2.31Z"/>
  <polygon class="st0" points="464.52 90.46 464.01 91.07 464.91 92.12 465.34 90.63 464.52 90.46"/>
  <path class="st0" d="M446.13,67.61l2-.18c-.39-.72-1-1.31-1.85-1.77l-.15,1.95Z"/>
  <path class="st0" d="M474.32,131.72c-.15-1.06-.77-1.68-1.86-1.85l.2,2.24,1.66-.39Z"/>
  <path class="st0" d="M474.84,137.56l-.12-1.36-.59-.27c-.05.65-.06,1.4-.04,2.26l.75-.63Z"/>
  <path class="st0" d="M480.54,140.99c.38-.57.59-1.23.63-1.99-.49.53-.7,1.19-.63,1.99Z"/>
  <path class="st0" d="M429.37,77.56l-.54-2.45-3.6.32c.97,1.31,2.36,2.02,4.14,2.13Z"/>
  <path class="st0" d="M473.2,106.53l4.43-.96c1.15-.37,2.13-1.1,2.95-2.2l-4.79.43-2.58,2.73Z"/>
  <path class="st0" d="M480.72,146.62c.54-.59.85-1.28.94-2.1l-1.63.71c.05.53.28,1,.69,1.39Z"/>
</svg>